<svg width="758" height="187" viewBox="0 0 758 187" fill="none" xmlns="http://www.w3.org/2000/svg">
<g clip-path="url(#clip0_34_1471)">
<path d="M709.833 164.719C702.967 164.719 696.482 163.431 690.379 160.856C684.371 158.186 679.078 154.562 674.501 149.985C670.019 145.312 666.443 139.924 663.773 133.821C661.198 127.718 659.91 121.138 659.91 114.081C659.91 106.929 661.15 100.253 663.63 94.0547C666.204 87.7607 669.685 82.2297 674.072 77.4615C678.554 72.6934 683.751 68.9742 689.664 66.3041C695.576 63.6339 701.918 62.2988 708.689 62.2988C715.555 62.2988 721.992 63.6339 728 66.3041C734.103 68.8789 739.395 72.5027 743.878 77.1754C748.36 81.8482 751.888 87.2839 754.463 93.4825C757.133 99.6811 758.468 106.404 758.468 113.652C758.468 120.613 757.181 127.193 754.606 133.392C752.126 139.495 748.646 144.931 744.164 149.699C739.682 154.372 734.484 158.043 728.572 160.713C722.755 163.383 716.508 164.719 709.833 164.719ZM709.118 142.976C712.932 142.976 716.508 142.213 719.846 140.687C723.184 139.161 726.092 137.111 728.572 134.536C731.147 131.866 733.102 128.767 734.437 125.238C735.867 121.615 736.582 117.705 736.582 113.509C736.582 109.503 735.867 105.737 734.437 102.208C733.006 98.5844 731.004 95.4374 728.429 92.7673C725.949 90.0018 723.041 87.8561 719.703 86.3303C716.461 84.8045 712.932 84.0416 709.118 84.0416C705.399 84.0416 701.87 84.8045 698.532 86.3303C695.29 87.8561 692.382 90.0018 689.807 92.7673C687.327 95.4374 685.325 98.5844 683.799 102.208C682.368 105.737 681.653 109.551 681.653 113.652C681.653 117.657 682.368 121.472 683.799 125.095C685.325 128.624 687.327 131.723 689.807 134.393C692.382 137.063 695.29 139.161 698.532 140.687C701.775 142.213 705.303 142.976 709.118 142.976Z" fill="url(#paint0_linear_34_1471)"/>
<path d="M661.486 148.126C662.631 150.51 663.25 152.56 663.346 154.277C663.441 155.898 662.917 157.376 661.772 158.711C660.723 159.951 658.959 161.19 656.48 162.43C652.665 164.242 649.709 164.766 647.611 164.004C645.513 163.336 643.558 161.095 641.746 157.28L613.709 98.6323L585.816 157.28C583.908 161 581.906 163.193 579.808 163.86C577.805 164.623 574.897 164.099 571.082 162.287C568.603 161.143 566.791 159.951 565.646 158.711C564.597 157.376 564.121 155.85 564.216 154.133C564.311 152.322 564.979 150.224 566.219 147.84L603.839 69.5942C604.793 67.687 606.176 66.1612 607.988 65.0168C609.895 63.8725 611.85 63.3003 613.852 63.3003C615.283 63.3003 616.618 63.5864 617.858 64.1586C619.097 64.6354 620.194 65.3506 621.148 66.3042C622.197 67.2579 623.055 68.4022 623.722 69.7373L661.486 148.126ZM589.678 139.972L598.547 121.519H629.015L637.884 139.972H589.678Z" fill="url(#paint1_linear_34_1471)"/>
<path d="M494.241 163.288C490.903 163.288 488.471 162.764 486.945 161.715C485.515 160.666 484.561 159.331 484.084 157.71C483.608 155.993 483.369 154.181 483.369 152.274V74.0288C483.369 72.2169 483.56 70.5004 483.941 68.8792C484.323 67.1627 485.276 65.7799 486.802 64.7309C488.328 63.6819 490.855 63.2051 494.384 63.3005H520.132C526.998 63.3005 533.387 64.5402 539.299 67.0196C545.212 69.4991 550.409 72.9798 554.891 77.4619C559.373 81.9439 562.854 87.1889 565.334 93.1968C567.813 99.2046 569.053 105.737 569.053 112.794C569.053 119.946 567.813 126.621 565.334 132.82C562.854 138.923 559.373 144.264 554.891 148.841C550.409 153.323 545.164 156.852 539.156 159.426C533.244 162.001 526.759 163.288 519.702 163.288H494.241ZM505.112 141.403H520.132C525.281 141.403 529.906 140.211 534.007 137.827C538.107 135.347 541.35 132.009 543.734 127.813C546.118 123.618 547.31 118.802 547.31 113.366C547.31 107.93 546.118 103.067 543.734 98.7755C541.35 94.4842 538.107 91.1465 534.007 88.7624C529.906 86.283 525.233 85.0432 519.988 85.0432H505.112V141.403Z" fill="url(#paint2_linear_34_1471)"/>
<path d="M401.692 163.288C398.354 163.288 395.922 162.764 394.397 161.715C392.966 160.666 392.013 159.331 391.536 157.71C391.059 155.993 390.821 154.181 390.821 152.274V74.0288C390.821 72.2169 391.011 70.5004 391.393 68.8792C391.774 67.1627 392.728 65.7799 394.254 64.7309C395.779 63.6819 398.307 63.2051 401.835 63.3005H427.583C434.449 63.3005 440.838 64.5402 446.751 67.0196C452.663 69.4991 457.861 72.9798 462.343 77.4619C466.825 81.9439 470.306 87.1889 472.785 93.1968C475.264 99.2046 476.504 105.737 476.504 112.794C476.504 119.946 475.264 126.621 472.785 132.82C470.306 138.923 466.825 144.264 462.343 148.841C457.861 153.323 452.616 156.852 446.608 159.426C440.695 162.001 434.211 163.288 427.154 163.288H401.692ZM412.563 141.403H427.583C432.733 141.403 437.358 140.211 441.458 137.827C445.559 135.347 448.801 132.009 451.185 127.813C453.569 123.618 454.761 118.802 454.761 113.366C454.761 107.93 453.569 103.067 451.185 98.7755C448.801 94.4842 445.559 91.1465 441.458 88.7624C437.358 86.283 432.685 85.0432 427.44 85.0432H412.563V141.403Z" fill="url(#paint3_linear_34_1471)"/>
<path d="M309.143 163.288C305.806 163.288 303.374 162.764 301.848 161.715C300.418 160.666 299.464 159.331 298.987 157.71C298.51 155.993 298.272 154.181 298.272 152.274V74.0288C298.272 72.2169 298.463 70.5004 298.844 68.8792C299.226 67.1627 300.179 65.7799 301.705 64.7309C303.231 63.6819 305.758 63.2051 309.286 63.3005H335.034C341.901 63.3005 348.29 64.5402 354.202 67.0196C360.115 69.4991 365.312 72.9798 369.794 77.4619C374.276 81.9439 377.757 87.1889 380.236 93.1968C382.716 99.2046 383.956 105.737 383.956 112.794C383.956 119.946 382.716 126.621 380.236 132.82C377.757 138.923 374.276 144.264 369.794 148.841C365.312 153.323 360.067 156.852 354.059 159.426C348.147 162.001 341.662 163.288 334.605 163.288H309.143ZM320.015 141.403H335.034C340.184 141.403 344.809 140.211 348.91 137.827C353.01 135.347 356.253 132.009 358.637 127.813C361.021 123.618 362.213 118.802 362.213 113.366C362.213 107.93 361.021 103.067 358.637 98.7755C356.253 94.4842 353.01 91.1465 348.91 88.7624C344.809 86.283 340.136 85.0432 334.891 85.0432H320.015V141.403Z" fill="url(#paint4_linear_34_1471)"/>
<path d="M216.595 163.288C213.257 163.288 210.825 162.764 209.3 161.715C207.869 160.666 206.915 159.331 206.439 157.71C205.962 155.993 205.723 154.181 205.723 152.274V74.0288C205.723 72.2169 205.914 70.5004 206.296 68.8792C206.677 67.1627 207.631 65.7799 209.156 64.7309C210.682 63.6819 213.209 63.2051 216.738 63.3005H242.486C249.352 63.3005 255.741 64.5402 261.654 67.0196C267.566 69.4991 272.764 72.9798 277.246 77.4619C281.728 81.9439 285.208 87.1889 287.688 93.1968C290.167 99.2046 291.407 105.737 291.407 112.794C291.407 119.946 290.167 126.621 287.688 132.82C285.208 138.923 281.728 144.264 277.246 148.841C272.764 153.323 267.519 156.852 261.511 159.426C255.598 162.001 249.114 163.288 242.057 163.288H216.595ZM227.466 141.403H242.486C247.635 141.403 252.261 140.211 256.361 137.827C260.462 135.347 263.704 132.009 266.088 127.813C268.472 123.618 269.664 118.802 269.664 113.366C269.664 107.93 268.472 103.067 266.088 98.7755C263.704 94.4842 260.462 91.1465 256.361 88.7624C252.261 86.283 247.588 85.0432 242.343 85.0432H227.466V141.403Z" fill="url(#paint5_linear_34_1471)"/>
<path d="M104.212 5.14497C110.603 4.05477 116.305 9.32879 115.72 15.7779L113.976 34.9887C121.999 32.2407 134.075 29.0842 145.293 30.2048C160.592 31.7329 172.441 41.7854 177.07 46.2447C181.172 50.1954 180.749 56.3567 177.171 59.9891L162.197 75.1894L165.759 97.0421H165.758C169.701 119.82 167.069 140.798 157.706 156.359C148.157 172.231 131.989 181.769 110.845 181.769H106.341C91.0971 181.769 78.6514 180.194 67.5648 176.134C57.479 172.441 48.8634 166.818 40.4277 159.031C25.323 162.026 10.239 152.912 6.07789 137.862C2.60611 125.305 7.78317 112.412 18.0177 105.485C13.9941 87.6019 16.9097 66.7687 29.5564 48.3818C42.9899 28.8511 66.9836 12.6507 103.907 5.20142L104.212 5.14497ZM109.262 15.1944C109.467 12.9289 107.426 11.0934 105.192 11.5441C33.8785 25.9316 15.7782 73.359 25.0607 106.933L25.5547 108.719C15.0425 113.192 9.20564 124.844 12.329 136.141C15.7074 148.36 28.3001 155.572 40.5514 152.366L40.841 152.288C41.3261 152.154 41.8036 152.006 42.2726 151.844C59.6304 168.875 76.1622 175.104 104.961 175.294L106.341 175.298H110.845C148.734 175.298 166.924 141.651 159.358 98.0809L155.75 75.9393C155.708 75.6809 155.629 75.43 155.558 75.1781C155.224 73.9965 155.544 72.7135 156.42 71.8239L172.546 55.4529C173.77 54.2107 173.858 52.2744 172.684 51.0194L172.567 50.9002C168.249 46.7407 158.005 38.2165 145.257 36.7096L144.647 36.6435C132.897 35.4698 119.534 39.6978 112.175 42.5291L112.057 42.5725C109.582 43.4309 106.878 41.4598 107.117 38.8328L109.262 15.1944Z" fill="#0073FF"/>
<path fill-rule="evenodd" clip-rule="evenodd" d="M120.699 16.23C121.581 6.51063 112.997 -1.42572 103.371 0.216304L103.336 0.222164L103.301 0.229L102.996 0.284664L102.918 0.300289C65.0218 7.94587 39.7629 24.7205 25.4372 45.5483C12.7127 64.0483 9.20055 84.9494 12.4958 103.387C2.36683 111.811 -2.4827 125.662 1.25848 139.194C5.88985 155.945 22.0834 166.39 38.8483 164.342C47.1217 171.664 55.7686 177.14 65.8454 180.83C77.6868 185.166 90.7764 186.769 106.341 186.769H110.844C133.678 186.769 151.505 176.366 161.991 158.937C171.307 143.453 174.277 123.426 171.563 102.042H171.639L171.078 98.5952C170.961 97.8395 170.838 97.0822 170.708 96.3237L170.694 96.2378L167.54 76.8901L180.733 63.4976C186.066 58.083 186.842 48.7154 180.54 42.644C175.722 38.0025 162.835 26.9326 145.791 25.23C136.682 24.3202 127.247 25.9689 119.628 28.0278L120.699 16.23ZM147.863 150.451C140.462 162.752 128.098 170.298 110.844 170.298H106.357L104.994 170.294C90.9282 170.201 80.2363 168.632 71.0807 165.203C61.9775 161.792 54.0787 156.424 45.7741 148.276L43.5661 146.109L40.6423 147.118C40.2809 147.242 39.9106 147.357 39.5329 147.461L39.277 147.53C29.6623 150.042 19.7939 144.377 17.1481 134.808C14.7034 125.965 19.2693 116.827 27.5124 113.32L31.5407 111.606L29.8796 105.6C25.6175 90.1843 27.6113 71.4676 39.0221 54.8774C50.1783 38.6578 70.6467 24.0474 104.088 16.8813L102.137 38.3813C101.547 44.8931 108.049 49.2556 113.696 47.2964L113.741 47.2808L113.785 47.2642L113.903 47.2212L113.969 47.1958C121.218 44.4069 133.624 40.576 144.123 41.6157L144.67 41.6753C154.634 42.8532 163.12 49.0946 167.72 53.2251L152.858 68.3149C150.713 70.4928 149.927 73.6372 150.746 76.5366C150.758 76.5792 150.769 76.6198 150.779 76.6538C150.785 76.6732 150.789 76.6885 150.793 76.7028C150.797 76.7168 150.801 76.7298 150.805 76.7446C150.814 76.7758 150.821 76.7989 150.826 76.8167L150.829 76.8286L154.424 98.8852L154.427 98.9106L154.432 98.936C158.078 119.932 155.401 137.921 147.863 150.451Z" fill="#0073FF"/>
<path d="M80.1896 109.059C80.1678 105.481 83.0505 102.563 86.6282 102.541V102.541C90.2059 102.519 93.1239 105.402 93.1457 108.98L93.2379 124.095C93.2597 127.673 90.3771 130.591 86.7993 130.613V130.613C83.2216 130.634 80.3036 127.752 80.2818 124.174L80.1896 109.059Z" fill="#0073FF"/>
<path d="M130.287 108.753C130.265 105.176 133.147 102.258 136.725 102.236V102.236C140.303 102.214 143.221 105.097 143.243 108.674L143.335 123.79C143.357 127.368 140.474 130.286 136.896 130.307V130.307C133.319 130.329 130.401 127.447 130.379 123.869L130.287 108.753Z" fill="#0073FF"/>
<path d="M101.239 140.344C102.498 139.937 103.844 140.644 104.244 141.923C105.07 144.559 108.23 149.51 114.08 149.51C117.011 149.51 118.888 148.315 120.123 146.868C121.426 145.342 122.05 143.478 122.211 142.32C122.396 140.991 123.606 140.066 124.914 140.254C126.222 140.442 127.133 141.672 126.947 143.001C126.678 144.935 125.735 147.712 123.737 150.052C121.672 152.471 118.515 154.37 114.08 154.37C105.198 154.37 100.798 146.948 99.6857 143.398C99.285 142.119 99.9806 140.751 101.239 140.344Z" fill="#0073FF"/>
</g>
<defs>
<linearGradient id="paint0_linear_34_1471" x1="200.002" y1="109.001" x2="761.002" y2="109.001" gradientUnits="userSpaceOnUse">
<stop stop-color="#0073FF"/>
<stop offset="1" stop-color="#0DA2FF"/>
</linearGradient>
<linearGradient id="paint1_linear_34_1471" x1="200.002" y1="109.001" x2="761.002" y2="109.001" gradientUnits="userSpaceOnUse">
<stop stop-color="#0073FF"/>
<stop offset="1" stop-color="#0DA2FF"/>
</linearGradient>
<linearGradient id="paint2_linear_34_1471" x1="200.002" y1="109.001" x2="761.002" y2="109.001" gradientUnits="userSpaceOnUse">
<stop stop-color="#0073FF"/>
<stop offset="1" stop-color="#0DA2FF"/>
</linearGradient>
<linearGradient id="paint3_linear_34_1471" x1="200.002" y1="109.001" x2="761.002" y2="109.001" gradientUnits="userSpaceOnUse">
<stop stop-color="#0073FF"/>
<stop offset="1" stop-color="#0DA2FF"/>
</linearGradient>
<linearGradient id="paint4_linear_34_1471" x1="200.002" y1="109.001" x2="761.002" y2="109.001" gradientUnits="userSpaceOnUse">
<stop stop-color="#0073FF"/>
<stop offset="1" stop-color="#0DA2FF"/>
</linearGradient>
<linearGradient id="paint5_linear_34_1471" x1="200.002" y1="109.001" x2="761.002" y2="109.001" gradientUnits="userSpaceOnUse">
<stop stop-color="#0073FF"/>
<stop offset="1" stop-color="#0DA2FF"/>
</linearGradient>
<clipPath id="clip0_34_1471">
<rect width="758" height="187" fill="white"/>
</clipPath>
</defs>
</svg>
