<svg width="185" height="187" viewBox="0 0 185 187" fill="none" xmlns="http://www.w3.org/2000/svg">
<g clip-path="url(#clip0_39_31)">
<path d="M104.212 5.14546C110.603 4.05526 116.305 9.32928 115.72 15.7784L113.976 34.9892C121.999 32.2412 134.075 29.0847 145.293 30.2052C160.592 31.7334 172.441 41.7859 177.07 46.2452C181.172 50.1959 180.749 56.3572 177.171 59.9896L162.197 75.1899L165.759 97.0426H165.758C169.701 119.82 167.069 140.799 157.706 156.36C148.157 172.232 131.989 181.77 110.845 181.77H106.341C91.0971 181.77 78.6514 180.195 67.5648 176.135C57.479 172.441 48.8634 166.819 40.4277 159.031C25.323 162.026 10.239 152.912 6.07789 137.862C2.60611 125.305 7.78317 112.413 18.0177 105.486C13.9941 87.6024 16.9097 66.7692 29.5564 48.3823C42.9899 28.8516 66.9836 12.6512 103.907 5.20191L104.212 5.14546ZM109.262 15.1949C109.467 12.9294 107.426 11.0939 105.192 11.5446C33.8785 25.9321 15.7782 73.3595 25.0607 106.933L25.5547 108.719C15.0425 113.192 9.20564 124.845 12.329 136.141C15.7074 148.36 28.3001 155.573 40.5514 152.366L40.841 152.288C41.3261 152.155 41.8036 152.007 42.2726 151.845C59.6304 168.876 76.1622 175.104 104.961 175.295L106.341 175.299H110.845C148.734 175.299 166.924 141.651 159.358 98.0814L155.75 75.9398C155.708 75.6814 155.629 75.4305 155.558 75.1786C155.224 73.997 155.544 72.714 156.42 71.8244L172.546 55.4533C173.77 54.2112 173.858 52.2749 172.684 51.0199L172.567 50.9007C168.249 46.7412 158.005 38.217 145.257 36.7101L144.647 36.644C132.897 35.4703 119.534 39.6982 112.175 42.5296L112.057 42.5729C109.582 43.4314 106.878 41.4602 107.117 38.8333L109.262 15.1949Z" fill="#0073FF"/>
<path fill-rule="evenodd" clip-rule="evenodd" d="M120.699 16.23C121.581 6.51063 112.997 -1.42572 103.371 0.216304L103.336 0.222164L103.301 0.229L102.996 0.284664L102.918 0.300289C65.0218 7.94587 39.7629 24.7205 25.4372 45.5483C12.7127 64.0483 9.20055 84.9494 12.4958 103.387C2.36683 111.811 -2.4827 125.662 1.25848 139.194C5.88985 155.945 22.0834 166.39 38.8483 164.342C47.1217 171.664 55.7686 177.14 65.8454 180.83C77.6868 185.166 90.7764 186.769 106.341 186.769H110.844C133.678 186.769 151.505 176.366 161.991 158.937C171.307 143.453 174.277 123.426 171.563 102.042H171.639L171.078 98.5952C170.961 97.8395 170.838 97.0822 170.708 96.3237L170.694 96.2378L167.54 76.8901L180.733 63.4976C186.066 58.083 186.842 48.7154 180.54 42.644C175.722 38.0025 162.835 26.9326 145.791 25.23C136.682 24.3202 127.247 25.9689 119.628 28.0278L120.699 16.23ZM147.863 150.451C140.462 162.752 128.098 170.298 110.844 170.298H106.357L104.994 170.294C90.9282 170.201 80.2363 168.632 71.0807 165.203C61.9775 161.792 54.0787 156.424 45.7741 148.276L43.5661 146.109L40.6423 147.118C40.2809 147.242 39.9106 147.357 39.5329 147.461L39.277 147.53C29.6623 150.042 19.7939 144.377 17.1481 134.808C14.7034 125.965 19.2693 116.827 27.5124 113.32L31.5407 111.606L29.8796 105.6C25.6175 90.1843 27.6113 71.4676 39.0221 54.8774C50.1783 38.6578 70.6467 24.0474 104.088 16.8813L102.137 38.3813C101.547 44.8931 108.049 49.2556 113.696 47.2964L113.741 47.2808L113.785 47.2642L113.903 47.2212L113.969 47.1958C121.218 44.4069 133.624 40.576 144.123 41.6157L144.67 41.6753C154.634 42.8532 163.12 49.0946 167.72 53.2251L152.858 68.3149C150.713 70.4928 149.927 73.6372 150.746 76.5366C150.758 76.5792 150.769 76.6198 150.779 76.6538C150.785 76.6732 150.789 76.6885 150.793 76.7028C150.797 76.7168 150.801 76.7298 150.805 76.7446C150.814 76.7758 150.821 76.7989 150.826 76.8167L150.829 76.8286L154.424 98.8852L154.427 98.9106L154.432 98.936C158.078 119.932 155.401 137.921 147.863 150.451Z" fill="#0073FF"/>
<path d="M80.1896 109.059C80.1678 105.481 83.0505 102.563 86.6282 102.542V102.542C90.2059 102.52 93.1239 105.402 93.1457 108.98L93.2379 124.096C93.2597 127.673 90.3771 130.591 86.7993 130.613V130.613C83.2216 130.635 80.3036 127.752 80.2818 124.175L80.1896 109.059Z" fill="#0073FF"/>
<path d="M130.287 108.753C130.265 105.176 133.147 102.258 136.725 102.236V102.236C140.303 102.214 143.221 105.097 143.243 108.674L143.335 123.79C143.357 127.368 140.474 130.286 136.896 130.307V130.307C133.319 130.329 130.401 127.447 130.379 123.869L130.287 108.753Z" fill="#0073FF"/>
<path d="M101.239 140.344C102.498 139.937 103.844 140.643 104.244 141.922C105.07 144.558 108.23 149.509 114.08 149.509C117.011 149.509 118.888 148.315 120.123 146.867C121.426 145.341 122.05 143.478 122.211 142.319C122.396 140.99 123.606 140.065 124.914 140.254C126.222 140.442 127.133 141.671 126.947 143C126.678 144.935 125.735 147.711 123.737 150.052C121.672 152.471 118.515 154.37 114.08 154.37C105.198 154.37 100.798 146.948 99.6857 143.397C99.285 142.118 99.9806 140.751 101.239 140.344Z" fill="#0073FF"/>
</g>
<defs>
<clipPath id="clip0_39_31">
<rect width="185" height="187" fill="white"/>
</clipPath>
</defs>
</svg>
